PathFileType	4	(X/Y/Z)	/Users/niels/Desktop/University/Third Semester/Perception and Action/Exam/Gymnastics Motion Tracking/Code for Gym Tracking/Scripts/Analyzed Data/Start Salto/st_salto_bad_id9_3_Sports2D/st_salto_bad_id9_3_Sports2D_px_person00.trc
DataRate	CameraRate	NumFrames	NumMarkers	Units	OrigDataRate	OrigDataStartFrame	OrigNumFrames
29.825581395348838	29.825581395348838	7	22	m	29.825581395348838	43	172
Frame#	Time	Hip			RHip			RKnee			RAnkle			RBigToe			RSmallToe			RHeel			LHip			LKnee			LAnkle			LBigToe			LSmallToe			LHeel			Neck			Head			Nose			RShoulder			RElbow			RWrist			LShoulder			LElbow			LWrist		
		X1	Y1	Z1	X2	Y2	Z2	X3	Y3	Z3	X4	Y4	Z4	X5	Y5	Z5	X6	Y6	Z6	X7	Y7	Z7	X8	Y8	Z8	X9	Y9	Z9	X10	Y10	Z10	X11	Y11	Z11	X12	Y12	Z12	X13	Y13	Z13	X14	Y14	Z14	X15	Y15	Z15	X16	Y16	Z16	X17	Y17	Z17	X18	Y18	Z18	X19	Y19	Z19	X20	Y20	Z20	X21	Y21	Z21	X22	Y22	Z22
43	1.4417153996101364	0.6414244529895441	-0.4038403757698845	0.0	0.6277330835506371	-0.39577744057727116	0.0	0.6136946020577706	-0.5483440674451342	0.0	0.5483159182375876	-0.6912829037256004	0.0	0.5663079651934043	-0.7620548795470219	0.0	0.5488467439000995	-0.7578693279806046	0.0	0.5311068774545719	-0.6994724501865489	0.0	0.659875024936164	-0.4138967799185852	0.0	0.6381916345099727	-0.5538091288279513	0.0	0.5877583322577472	-0.6917961411257999	0.0	0.6086622783303537	-0.7582792331060388	0.0	0.6144616753305326	-0.753365164225432	0.0	0.5734283896966105	-0.7056468602865195	0.0	0.7629733257221367	-0.26074913653291837	0.0	0.843718865321148	-0.2269349215856257	0.0	0.8196790823794486	-0.272571485876181	0.0	0.7499505310915586	-0.23750304716955256	0.0	0.8302540832225591	-0.296523112388638	0.0	0.9065253865478523	-0.354227724528962	0.0	0.7719572913151465	-0.3007657738237525	0.0	0.8300256478234243	-0.36709041809586374	0.0	0.8954993252917091	-0.3946244656161038	0.0
44	1.475243664717349	0.6472245699435984	-0.39113376073543066	0.0	0.6343333932909718	-0.3828196633398256	0.0	0.6232172543508427	-0.5362502187745215	0.0	0.5481722435672476	-0.6754365675861821	0.0	0.5633109433078419	-0.7466306203800909	0.0	0.5472168833494993	-0.7412181959464279	0.0	0.5301490617554184	-0.6823169630711047	0.0	0.6655051018195494	-0.4017257610966886	0.0	0.6468493714549106	-0.5427146991083154	0.0	0.5875703155634472	-0.6786392364661473	0.0	0.6050563022210044	-0.745284039730515	0.0	0.6108493556212719	-0.7404004788134027	0.0	0.573087663815518	-0.6916931187612022	0.0	0.7748271005721169	-0.25725343169524767	0.0	0.8597279123578642	-0.2270639544631637	0.0	0.8311042204674154	-0.2710138463026595	0.0	0.765714660758414	-0.23213419170209604	0.0	0.8371596104009701	-0.29423561945441457	0.0	0.9097718564759093	-0.35961984409265835	0.0	0.7816850175603166	-0.2957875457342952	0.0	0.8331610522277186	-0.36901605525475856	0.0	0.8958765611118245	-0.40059678194548864	0.0
45	1.5087719298245614	0.6536856347709884	-0.37832263644983827	0.0	0.6412358456228198	-0.3698846958012394	0.0	0.6327642515986732	-0.5240591222719352	0.0	0.5481209512741905	-0.6587854153720711	0.0	0.5605673255019046	-0.730415267011592	0.0	0.5454279723619077	-0.7238634678843948	0.0	0.5293994722103382	-0.6643486245822787	0.0	0.6713961356655571	-0.3896339345282432	0.0	0.6559173565212548	-0.5319081650603187	0.0	0.5871637912606723	-0.6652042728477343	0.0	0.6008748058996837	-0.7315118224041844	0.0	0.6068463222279955	-0.7266619474692072	0.0	0.5722922787766953	-0.6772564252769838	0.0	0.7862007102912097	-0.2540368794195101	0.0	0.8753927250716904	-0.22852284255631156	0.0	0.8423663852858484	-0.26993653762835074	0.0	0.7808264232784525	-0.22725499059326343	0.0	0.8434515442098349	-0.29242367101389266	0.0	0.9123626883229373	-0.36442523847879355	0.0	0.7907565104058744	-0.2908120399793462	0.0	0.835343507971834	-0.3706078340058086	0.0	0.8953466033823845	-0.4071152036687285	0.0
46	1.5423001949317738	0.6609967484648711	-0.36548922192417826	0.0	0.6484242453689307	-0.3569507932463304	0.0	0.6421199993412711	-0.5117658719252979	0.0	0.5482832385384359	-0.6412600134790106	0.0	0.5583079352687397	-0.7132700908412934	0.0	0.5434860922628441	-0.7057736258350015	0.0	0.5289538731915948	-0.6454736903734863	0.0	0.6776791083532967	-0.37776293381576426	0.0	0.665180971180965	-0.5213028984734568	0.0	0.586651734102216	-0.6513078185957036	0.0	0.5961277111197788	-0.7168274849257139	0.0	0.6025431802594836	-0.7120508461666885	0.0	0.571065031848491	-0.6619837804859178	0.0	0.7978326570404747	-0.2509536912780909	0.0	0.8904998610598716	-0.23130448759745562	0.0	0.8538930102183637	-0.2693683670210147	0.0	0.7953979370027483	-0.22312429871322156	0.0	0.8492997391576633	-0.2911821448707184	0.0	0.9142288456535399	-0.368633342306967	0.0	0.799671625473628	-0.2864953216205885	0.0	0.8369647256005376	-0.37159512435776365	0.0	0.8941016009796368	-0.41408964789793795	0.0
47	1.5758284600389865	0.6690450602816981	-0.35269148152847385	0.0	0.6559198445944797	-0.34401675936606074	0.0	0.6512661983794308	-0.4993861964091442	0.0	0.5488857851089182	-0.6227470442838396	0.0	0.5566236454650175	-0.6950403377296243	0.0	0.5415357948584266	-0.6867963306389341	0.0	0.5289470165169028	-0.6256004609818581	0.0	0.6842892099458129	-0.3661142424022717	0.0	0.6744286775003748	-0.5107045001201049	0.0	0.5861981875916688	-0.6364660378484422	0.0	0.5909921978133762	-0.7009955692181361	0.0	0.5980626017098112	-0.6963752955736564	0.0	0.569614822174715	-0.645284780854238	0.0	0.8104399748661362	-0.24792849964110017	0.0	0.9050096326115472	-0.23510305693764402	0.0	0.8659369116341745	-0.2693698149585184	0.0	0.8097885248290267	-0.21983857971460527	0.0	0.8547618173459809	-0.29024624522322495	0.0	0.915138742595496	-0.3722012998753412	0.0	0.8088163255332504	-0.2830662671664109	0.0	0.8382081740172979	-0.37184509932897436	0.0	0.8920374272442629	-0.42133410482756617	0.0
48	1.6093567251461989	0.6773760019578859	-0.3401014915492373	0.0	0.6637234600428489	-0.33131233795813714	0.0	0.6602829745351542	-0.4872048077836528	0.0	0.5502037974297745	-0.6034838366229716	0.0	0.5556066886637103	-0.6759851850287982	0.0	0.5400401652366483	-0.6671447723710469	0.0	0.5295490050404277	-0.6050768889879876	0.0	0.6908573785659956	-0.35461320630870113	0.0	0.6832826008227769	-0.499994923283127	0.0	0.5859649715112961	-0.6203320215106572	0.0	0.5858894107083016	-0.6839772206370358	0.0	0.5936340775928383	-0.6795911300406999	0.0	0.5682371005023105	-0.626881873814627	0.0	0.8240949012699272	-0.24506770066858555	0.0	0.9189732024624881	-0.23953516172087186	0.0	0.8783586009586891	-0.27004266616472455	0.0	0.824157785003829	-0.21739676326221602	0.0	0.8598106272441342	-0.2892159380201583	0.0	0.9148101120130815	-0.3750189391033794	0.0	0.8181876719722334	-0.2800911888420516	0.0	0.8390498985058163	-0.37128183878045595	0.0	0.8888585886386409	-0.42852213492475166	0.0
49	1.6428849902534113	0.685487048985066	-0.32791826488216047	0.0	0.6719495591374467	-0.3192210955696962	0.0	0.669340759958914	-0.4757027469842859	0.0	0.5524485811539647	-0.5840122972056873	0.0	0.5554531030199276	-0.6567039094630768	0.0	0.5397102995498553	-0.6474117642059515	0.0	0.5308720981794949	-0.5846532325490081	0.0	0.696823684152864	-0.34305445020535147	0.0	0.6912620223750673	-0.4891524869302787	0.0	0.5859735478526653	-0.6029410019000158	0.0	0.5813394489928556	-0.6660034145736907	0.0	0.5895131531556769	-0.6618648212768337	0.0	0.5670410547629198	-0.6071329740092025	0.0	0.8381575693055089	-0.24260836254085152	0.0	0.9324223161024175	-0.24439129170969076	0.0	0.890705283753199	-0.27147900464510627	0.0	0.8384510395713464	-0.21582700936649446	0.0	0.8644540272775881	-0.2877554033138465	0.0	0.9130560848918494	-0.37704879627685406	0.0	0.8274955706778794	-0.27659276684308376	0.0	0.8393580601309549	-0.369751498079165	0.0	0.8843010466134551	-0.4352032201890609	0.0
